<?xml version="1.0" encoding="UTF-8" standalone="no"?>
<svg
   height="844.58777"
   viewBox="-20.21 56.72 241.80715 175.78726"
   width="1810.53"
   version="1.1"
   id="svg11"
   xmlns="http://www.w3.org/2000/svg"
   xmlns:svg="http://www.w3.org/2000/svg">
  <defs
     id="defs11" />
  <g
     fill="#0d2c40"
     id="g4"
     transform="matrix(1.3166331,0,0,1.3166331,-90.365408,-44.976828)">
    <path
       d="m 93.09,176.17 20.91,1.54 v 17.86 c 0,0 -39.07,38.48 -96,-7.08 h 19.4 l 2.15,-17.55 c 0,0 22.14,22.47 53.54,5.23 z"
       id="path1" />
    <path
       d="m 22.28,93.66 c 0,0 -42.49,39.56 -7.7,90.21 l 19.42,1.85 1.85,-18.78 c 0,0 -17.85,-29.25 5.21,-52.34 L 20.38,113 Z"
       id="path2" />
    <path
       d="m 26.9,90.89 c 0,0 53,-34.17 93.29,7.08 l -17.86,-1.23 -1.85,20 c 0,0 -20.32,-24.62 -54.18,-5.53 l -20.63,-0.92 z"
       id="path3" />
    <path
       d="m 105.1,121.68 1.23,-20.63 18.78,1.85 56.65,63.11 h -19.39 l -1.85,17.55 z"
       id="path4" />
  </g>
  <g
     fill="#02d35f"
     id="g8"
     transform="matrix(1.3166331,0,0,1.3166331,-90.365408,-44.976828)">
    <path
       d="m 98.33,172.79 71.73,-79.13 19.09,1.85 -1.23,19.4 -70.5,78.5 0.3,-20.32 z"
       id="path5" />
    <path
       d="m 172.83,90.81 19.86,1.62 -1.38,18.94 c 0,0 29.32,-18.71 50.8,1.15 l 21,0.92 L 265,95 c 0,0 -32.82,-37 -92.17,-4.19 z"
       id="path6" />
    <path
       d="m 245.11,115.52 21,1.23 1.62,-18.55 c 0,0 45.95,51.19 -3.7,95.21 l -20.31,-1.41 1.85,-21 c 0,0 27.48,-30.77 -0.46,-55.48 z"
       id="path7" />
    <path
       d="m 186.69,170.94 -21.21,-1.85 -1.19,18.71 c 0,0 37.64,43.41 94.44,8.77 l -19.4,-1.57 1.85,-20.09 c 0,0 -24.71,19.81 -54.49,-3.97 z"
       id="path8" />
  </g>
  <path
     d="m 190.77542,137.50851 v 9.21627 a 4.963716,4.963716 0 0 0 -0.11677,1.09417 5.0822037,5.0822037 0 0 0 0.11677,1.10571 v 14.85108 h -6.89889 v -26.33398 z"
     fill="#0d2c40"
     id="path9"
     style="stroke-width:1.31719" />
  <path
     d="m 196.84465,137.50851 a 10.95434,10.95434 0 0 0 -6.06923,2.85751 10.533109,10.533109 0 0 0 -4.04146,7.46469 11.230876,11.230876 0 0 0 4.04146,7.90115 8.9399392,8.9399392 0 0 0 5.38419,2.43464 c 6.41358,0.15874 9.57257,-5.35857 9.57257,-10.32232 0,-4.96327 -3.92418,-10.62539 -8.88753,-10.33567 z m -2.09229,14.89222 a 4.2000668,4.2000668 0 0 1 -3.95133,-3.46438 5.0822037,5.0822037 0 0 1 -0.11686,-1.10564 4.963716,4.963716 0 0 1 0.11686,-1.09211 4.2000668,4.2000668 0 0 1 3.95133,-3.46239 4.5818908,4.5818908 0 0 1 0,9.12452 z m 24.69964,-7.03214 c -1.00019,-0.31522 -4.70115,-0.89441 -4.70115,-2.28999 0,-0.79069 1.13339,-0.88281 1.68525,-0.85718 1.58138,0 3.95152,1.88279 5.26673,1.52856 1.17212,-0.30334 2.19972,-3.33099 2.63426,-4.35873 a 16.813337,16.813337 0 0 0 -10.98161,-2.00005 6.5831623,6.5831623 0 0 0 -4.96381,8.68969 c 1.67184,4.3314 6.80738,2.63241 9.40078,5.26483 1.06655,1.10763 -1.13133,1.60686 -1.85538,1.58152 a 15.602039,15.602039 0 0 1 -6.24134,-2.3703 c -0.64615,0.9219 -2.6326,3.1197 -2.39577,4.26477 0.23664,1.14705 2.85559,2.00231 3.94954,2.3446 3.65968,1.18422 9.30808,1.63242 12.06039,-1.69871 3.43672,-4.0027 0.4342,-8.70372 -3.85789,-10.09901 z m -53.57384,-15.15468 a 14.482912,14.482912 0 1 0 14.48329,14.4833 14.482912,14.482912 0 0 0 -14.48329,-14.4833 z m 0,21.86982 a 7.4258257,7.4258257 0 1 1 7.43925,-7.42547 7.4258257,7.4258257 0 0 1 -7.453,7.42547 z"
     fill="#0d2c40"
     id="path10"
     style="stroke-width:1.31719" />
  <path
     d="m 28.710939,137.17951 h -8.255185 l 8.729197,22.83044 h 3.765606 v -9.72906 z m 8.492353,0.0356 h 8.255202 l -8.742344,22.83002 h -3.765593 v -9.72903 z m -48.570683,-3.2518 a 19.868095,19.868095 0 0 0 -9.348051,-3.44902 c -4.450237,-0.42105 -9.216551,0.11738 -13.337594,0.11738 v 29.34732 h 0.197472 c 0.790131,0.1018 1.580042,0.17213 2.383256,0.22508 a 52.309871,52.309871 0 0 0 9.506048,-0.0694 c 6.043353,-0.67149 9.927378,-2.63431 12.3104408,-5.18882 a 13.311171,13.311171 0 0 0 3.357534,-8.60977 v -0.69836 -0.36788 c -0.05281,-4.17464 -1.250819,-8.37462 -5.0691058,-11.2969 z m -6.714877,17.93318 c -2.488354,1.39531 -5.516677,1.05275 -8.255179,1.05275 V 137.6644 c 2.909738,0 6.188218,-0.38155 8.742327,1.40919 4.239633,2.98851 4.081702,10.2419 -0.526681,12.82367 z m 34.917247,2.2902 c -0.671507,-0.56634 -1.527389,-1.52711 -2.435912,-1.68572 -1.448116,-0.19676 -3.252054,1.7516 -4.8583285,1.91028 -2.501635,0.25036 -4.3053667,-1.47567 -5.2665537,-3.55512 H 19.494597 c 0,-4.21284 -0.35565,-8.6498 -3.950004,-11.54646 -6.6753405,-5.45069 -17.6296642,-1.42306 -18.8540742,7.17488 -1.316783,9.05802 5.806146,14.90409 14.4829142,13.77291 a 11.375705,11.375705 0 0 0 5.819489,-2.63447 c 0.592422,-0.52641 1.461419,-1.25057 1.026928,-2.10568 a 4.8978767,4.8978767 0 0 0 -1.184871,-1.33066 z m -4.858516,-7.46532 H 4.2084268 a 3.9498984,3.9498984 0 0 1 7.7680362,0 z"
     fill="#02d35f"
     id="path11"
     style="stroke-width:1.31719" />
</svg>
