<?xml version="1.0" encoding="UTF-8" standalone="no"?>
<!-- Created with Inkscape (http://www.inkscape.org/) -->

<svg
   width="13.447mm"
   height="13.447mm"
   viewBox="0 0 13.447 13.447"
   version="1.1"
   id="svg1"
   xml:space="preserve"
   xmlns="http://www.w3.org/2000/svg"
   xmlns:svg="http://www.w3.org/2000/svg"><defs
     id="defs1"><clipPath
       clipPathUnits="userSpaceOnUse"
       id="clipPath57"><rect
         style="fill:#e2e2e2;fill-opacity:0.830739;stroke:none;stroke-width:0.336095"
         id="rect57"
         width="13.446737"
         height="13.447"
         x="1.5190291"
         y="-26.246696" /></clipPath></defs><g
     id="layer1"><g
       id="g53"
       transform="translate(-1.4541384,26.371239)"
       clip-path="url(#clipPath57)"><path
         style="fill:#a6a7aa"
         d="m 5.7178673,-17.605101 -0.5040279,-0.595313 0.5953125,0.504028 0.5953125,0.504028 0.5953125,-0.504028 0.5953125,-0.504028 -0.504028,0.595313 -0.5040279,0.595312 H 6.4044644 6.2218953 Z m 4.7876387,0.06615 0.478889,-0.529166 h 0.132292 0.132292 l -0.47889,0.529166 -0.478889,0.529167 h -0.132292 -0.132291 z m 3.704167,0 0.478889,-0.529166 h 0.132292 0.132291 l -0.478889,0.529166 -0.478889,0.529167 h -0.132292 -0.132291 z m 2.68993,0.352778 -0.176389,-0.176389 0.0015,-1.477257 0.0015,-1.477257 0.28138,-1.013323 0.28138,-1.013322 0.932758,-0.389732 0.932759,-0.389731 1.09949,0.08014 1.09949,0.08014 0.08455,0.595313 0.08455,0.595312 h -1.288402 -1.288403 l -0.3175,0.3175 -0.3175,0.3175 v 0.198463 0.198463 l 1.521355,0.07935 1.521354,0.07935 0.08455,0.595313 0.08455,0.595312 H 19.916673 18.31077 v 1.190625 1.190625 h -0.617361 -0.617361 z m 6.257054,-0.08378 -0.578017,-0.239144 -0.281879,-0.526697 -0.28188,-0.526697 v -2.266352 -2.266353 h 0.661459 0.661458 v 2.08427 2.08427 l 0.334084,0.277265 0.334084,0.277265 1.054978,0.08586 1.054979,0.08586 v 0.529167 0.529167 l -1.190625,0.05563 -1.190625,0.05563 z m 3.413621,-2.716388 0.07481,-2.976563 0.595312,-0.08455 0.595313,-0.08455 v 3.061111 3.06111 h -0.670124 -0.670124 z m 1.794603,2.813573 v -0.16299 l 0.926042,-1.261521 0.926042,-1.261521 v -0.162377 -0.162377 l -0.926042,-1.288982 -0.926042,-1.288983 v -0.166838 -0.166839 h 0.647994 0.647993 l 0.711791,0.933206 0.71179,0.933206 0.619576,-0.911789 0.619577,-0.911789 1.571654,-0.0075 1.571654,-0.0075 0.250435,0.316829 0.250435,0.316829 0.467113,1.455208 0.467113,1.455208 0.139921,0.24252 0.139922,0.242519 0.684745,-1.962311 0.684746,-1.962311 h 0.926041 0.926042 l 0.07498,2.99499 0.07498,2.994989 -0.736442,-0.08457 -0.736442,-0.08457 -0.132291,-1.587501 -0.132292,-1.5875 -0.508892,1.666794 -0.508893,1.666794 -0.657204,-0.07929 -0.657205,-0.07929 -0.606189,-1.587501 -0.60619,-1.5875 -0.01365,1.653646 -0.01365,1.653646 h -1.44567 -1.44567 l -0.656376,-0.965945 -0.656377,-0.965945 -0.569921,0.965945 -0.569922,0.965945 h -0.767615 -0.767616 z m 5.291667,-2.926292 v -2.560114 l -0.91295,1.284084 -0.91295,1.284083 0.185346,0.287481 0.185346,0.287481 0.661458,0.985274 0.661458,0.985275 0.06615,0.0033 0.06615,0.0033 z m 7.14375,2.981805 v -0.107475 l 1.170443,-2.736796 1.170444,-2.736795 0.381093,-0.240545 0.381094,-0.240545 0.378098,0.14509 0.378099,0.14509 1.113513,2.608997 1.113514,2.608997 -4.41e-4,0.330729 -4.4e-4,0.330729 h -0.618989 -0.618989 l -0.30138,-0.661458 -0.301381,-0.661459 h -1.167614 -1.167615 l -0.166015,0.661459 -0.166016,0.661458 h -0.788709 -0.788709 z m 3.704167,-2.752371 v -0.214013 l -0.388461,-0.513591 -0.38846,-0.513591 -0.0084,0.30909 -0.0084,0.30909 -0.160599,0.418514 -0.1606,0.418515 h 0.557475 0.557474 z m 3.175,0.496171 v -2.398824 h -0.944444 -0.944444 l 0.08455,-0.595312 0.08455,-0.595313 h 2.513542 2.513541 l 0.08455,0.595313 0.08455,0.595312 h -0.934143 -0.934142 l -0.07645,2.315104 -0.07645,2.315105 -0.727604,0.08372 -0.727604,0.08372 z m 4.459834,1.968746 -0.699542,-0.386313 -0.292646,-0.839485 -0.292646,-0.839486 v -0.630474 -0.630475 l 0.376369,-0.900779 0.37637,-0.900779 1.012693,-0.302292 1.012693,-0.302293 1.058333,0.08709 1.058333,0.08709 v 0.529167 0.529166 l -1.387117,0.07991 -1.387117,0.07991 -0.275838,0.515407 -0.275837,0.515407 h 1.596809 1.596809 v 0.661459 0.661458 h -1.596809 -1.596809 l 0.275837,0.515407 0.275838,0.515407 1.387117,0.07991 1.387117,0.07991 v 0.529167 0.529167 l -1.455208,0.06184 -1.455208,0.06184 z m 4.006832,-0.254937 v -0.649867 l 1.91823,-0.07774 1.918229,-0.07774 v -0.396875 -0.396875 l -1.549109,-0.137699 -1.549109,-0.137698 -0.501412,-0.619217 -0.501412,-0.619218 v -0.470543 -0.470544 l 0.50577,-0.624599 0.50577,-0.6246 2.272355,-0.09332 2.272355,-0.09332 v 0.688609 0.688609 h -1.852083 -1.852084 v 0.529167 0.529166 h 1.455209 1.455208 l 0.529167,0.529167 0.529167,0.529167 v 0.79375 0.79375 l -0.529167,0.529166 -0.529167,0.529167 H 58.39509 56.146131 Z m -50.3045823,-1.92982 -0.363126,-0.463021 0.4630208,0.363126 0.4630209,0.363126 v 0.0999 0.09989 h -0.099895 -0.099895 z m 3.4733324,-0.463021 v -0.132292 h 0.1322916 0.1322917 v 0.132292 0.132291 H 9.4471727 9.3148811 Z m -1.3229167,-1.058334 v -0.132291 h 0.1322917 0.1322916 v 0.132291 0.132292 H 8.1242561 7.9919644 Z"
         id="path56" /><path
         style="fill:#65bfbb"
         d="m 2.0871391,-17.750168 -0.4305895,-0.475796 2.3682606,-2.357288 2.3682606,-2.357288 0.7994468,0.765918 0.7994468,0.765919 v 0.314977 0.314977 l -0.396875,0.329377 -0.396875,0.329377 -0.410154,-0.340398 -0.410154,-0.340397 -0.4270135,0.427013 -0.4270134,0.427013 0.3514182,0.423433 0.3514182,0.423433 -0.4270134,0.427014 -0.4270135,0.427013 -0.4209955,-0.349395 -0.4209955,-0.349395 -0.8616504,0.835144 -0.8616504,0.835145 H 2.6625629 2.5177286 Z"
         id="path55" /><path
         style="fill:#ce2654"
         d="m 11.909223,-19.040756 -1.766384,-1.766383 -0.4284054,0.355545 -0.4284056,0.355545 -0.5182409,-0.518241 -0.5182409,-0.518241 0.9339846,-0.905254 0.9339842,-0.905253 2.369516,2.358537 2.369515,2.358537 -0.43059,0.475796 -0.430589,0.475796 h -0.15988 -0.159881 z m -5.0735515,0.21682 -0.4445571,-0.49123 0.4085129,-0.339035 0.408513,-0.339036 0.5232694,0.473552 0.5232694,0.473553 -0.2960459,0.356713 -0.2960458,0.356713 H 7.471408 7.2802286 Z"
         id="path54" /><path
         style="fill:#5c153d"
         d="m 5.7818712,-17.760593 -0.440024,-0.486221 0.5313086,-0.480828 0.5313086,-0.480828 0.5313086,0.480828 0.5313086,0.480828 -0.4400241,0.486221 -0.440024,0.486221 H 6.4044644 6.2218953 Z m 2.7875966,-0.920043 -1.3887952,-1.406264 0.5464448,-0.494525 0.5464448,-0.494526 1.4410644,1.423164 1.4410644,1.423163 -0.432245,0.477626 -0.432246,0.477626 H 10.124732 9.958263 Z"
         id="path53" /></g></g></svg>
