<svg id="logo-perforce-icon-circle-indigo" xmlns="http://www.w3.org/2000/svg" viewBox="0 0 294.92 294.92">
      <circle cx="147.46" cy="147.46" r="147.46" fill="#4c00ff"/>
      <g>
        <path d="M178.17,127.78l-15.17,8.76,3.84,2.21c4.54,2.62,5.03,6.96,5.03,8.71s-.49,6.09-5.03,8.71l-68.64,39.63c-4.54,2.62-8.54.87-10.05,0-1.51-.87-5.03-3.47-5.03-8.71v-79.26c0-5.24,3.52-7.83,5.03-8.71,1.51-.87,5.52-2.62,10.05,0l18.18,10.5,15.54-8.97-25.95-14.98c-8.01-4.63-17.58-4.63-25.59,0-8.01,4.63-12.8,12.91-12.8,22.17v79.26c0,9.25,4.78,17.54,12.8,22.17,4.01,2.31,8.4,3.47,12.8,3.47s8.79-1.16,12.8-3.47l68.64-39.63c8.01-4.63,12.8-12.91,12.8-22.17,0-7.78-3.39-14.87-9.23-19.68Z" fill="#f6f9fd"/>
        <path d="M116.75,167.14l15.17-8.76-3.84-2.21c-4.54-2.62-5.03-6.96-5.03-8.71s.49-6.09,5.03-8.71l68.64-39.63c4.54-2.62,8.54-.87,10.05,0,1.51.87,5.03,3.47,5.03,8.71v79.26c0,5.24-3.52,7.83-5.03,8.71-1.51.87-5.52,2.62-10.05,0l-18.18-10.5-15.54,8.97,25.95,14.98c8.01,4.63,17.58,4.63,25.59,0,8.01-4.63,12.8-12.91,12.8-22.17v-79.26c0-9.25-4.78-17.54-12.8-22.17-4.01-2.31-8.4-3.47-12.8-3.47s-8.79,1.16-12.8,3.47l-68.64,39.63c-8.01,4.63-12.8,12.91-12.8,22.17,0,7.78,3.39,14.87,9.23,19.68Z" fill="#f6f9fd"/>
      </g>
</svg>